# File created by Blade
# Date/Time:  Wed Apr 08 17:39:41 2015
#---------------------------------------------------------
:version 1.10
:name HOM
:units
  mass 1.0
  length 1.000000
  angle deg
:documentation
     Acclaim Skeleton File
:root
   axis xyz
   order TX TY TZ RX RY RZ
   position 0.000000 0.000000 0.000000
   orientation 0 0 0
:bonedata
   begin
      id 1
      name Spine_dum
      direction 0.000000 1.000000 0.000000
      length 5.893853
      axis 0.0 0.0 0.0 xyz
   end
   begin
      id 2
      name LeftUpLeg_dum
      direction 1.000000 0.000000 0.000000
      length 3.697939
      axis 0.0 0.0 0.0 xyz
   end
   begin
      id 3
      name RightUpLeg_dum
      direction -1.000000 0.000000 0.000000
      length 3.697939
      axis 0.0 0.0 0.0 xyz
   end
   begin
      id 4
      name Spine
      direction 0.000000 1.000000 0.000000
      length 0.000000
      axis 0.0 0.0 0.0 xyz
      dof rx ry rz
   end
   begin
      id 5
      name Spine_dum1
      direction 0.000000 1.000000 0.000000
      length 16.447146
      axis 0.0 0.0 0.0 xyz
   end
   begin
      id 6
      name Spine_dum2
      direction 0.000000 1.000000 0.000000
      length 10.900383
      axis 0.0 0.0 0.0 xyz
   end
   begin
      id 7
      name Spine_dum3
      direction 0.000000 1.000000 0.000000
      length 10.900383
      axis 0.0 0.0 0.0 xyz
   end
   begin
      id 8
      name Head
      direction 0.000000 1.000000 0.000000
      length 4.527550
      axis 0.0 0.0 0.0 xyz
      dof rx ry rz
   end
   begin
      id 9
      name LeftShoulder
      direction 1.000000 0.000000 0.000000
      length 8.219464
      axis 0.0 0.0 -90.0 xyz
      dof rx ry rz
   end
   begin
      id 10
      name LeftArm
      direction 1.000000 0.000000 0.000000
      length 11.094937
      axis 0.0 0.0 -90.0 xyz
      dof rx ry rz
   end
   begin
      id 11
      name LeftForeArm
      direction 1.000000 0.000000 0.000000
      length 9.103875
      axis 0.0 0.0 -90.0 xyz
      dof ry rz rx
   end
   begin
      id 12
      name LeftHand
      direction 0.000000 0.000000 0.000000
      length 0.000000
      axis 0.0 0.0 -90.0 xyz
      dof rx ry rz
   end
   begin
      id 13
      name LeftHand_dum1
      direction 0.000000 0.000000 0.000000
      length 0.000000
      axis 0.0 0.0 -90.0 xyz
   end
   begin
      id 14
      name LeftHand_dum2
      direction 1.000000 0.000000 0.000000
      length 3.937000
      axis 0.0 0.0 -90.0 xyz
   end
   begin
      id 15
      name LeftHandThumb1
      direction 0.000000 0.000000 1.000000
      length 3.937000
      axis 0.0 0.0 -90.0 xyz
      dof rx rz ry
   end
   begin
      id 16
      name RightShoulder
      direction -1.000000 0.000000 0.000000
      length 8.219464
      axis 0.0 0.0 90.0 xyz
      dof rx ry rz
   end
   begin
      id 17
      name RightArm
      direction -1.000000 0.000000 0.000000
      length 11.094937
      axis 0.0 0.0 90.0 xyz
      dof rx ry rz
   end
   begin
      id 18
      name RightForeArm
      direction -1.000000 0.000000 0.000000
      length 9.103875
      axis 0.0 0.0 90.0 xyz
      dof ry rz rx
   end
   begin
      id 19
      name RightHand
      direction 0.000000 0.000000 0.000000
      length 0.000000
      axis 0.0 0.0 90.0 xyz
      dof rx ry rz
   end
   begin
      id 20
      name RightHand_dum1
      direction 0.000000 0.000000 0.000000
      length 0.000000
      axis 0.0 0.0 90.0 xyz
   end
   begin
      id 21
      name RightHand_dum2
      direction -1.000000 0.000000 0.000000
      length 3.937000
      axis 0.0 0.0 90.0 xyz
   end
   begin
      id 22
      name RightHandThumb1
      direction 0.000000 0.000000 1.000000
      length 3.937000
      axis 0.0 0.0 90.0 xyz
      dof rx rz ry
   end
   begin
      id 23
      name LeftUpLeg
      direction 0.000000 -1.000000 0.000000
      length 16.181467
      axis 0.0 0.0 0.0 xyz
      dof rx ry rz
   end
   begin
      id 24
      name LeftLeg
      direction 0.000000 -1.000000 0.000000
      length 16.501392
      axis 0.0 0.0 0.0 xyz
      dof rx ry rz
   end
   begin
      id 25
      name LeftFoot
      direction 0.000000 -0.258819 0.965926
      length 6.408245
      axis 15.0 0.0 0.0 xyz
      dof rx ry rz
   end
   begin
      id 26
      name LeftToeBase
      direction 0.000000 0.000000 1.000000
      length 2.952750
      axis 0.0 0.0 0.0 xyz
      dof rx ry rz
   end
   begin
      id 27
      name RightUpLeg
      direction 0.000000 -1.000000 0.000000
      length 16.181467
      axis 0.0 0.0 0.0 xyz
      dof rx ry rz
   end
   begin
      id 28
      name RightLeg
      direction 0.000000 -1.000000 0.000000
      length 16.501392
      axis 0.0 0.0 0.0 xyz
      dof rx ry rz
   end
   begin
      id 29
      name RightFoot
      direction 0.000000 -0.258819 0.965926
      length 6.408245
      axis 15.0 0.0 0.0 xyz
      dof rx ry rz
   end
   begin
      id 30
      name RightToeBase
      direction 0.000000 0.000000 1.000000
      length 2.952750
      axis 0.0 0.0 0.0 xyz
      dof rx ry rz
   end
:hierarchy
   begin
      root Spine_dum LeftUpLeg_dum RightUpLeg_dum
      Spine_dum Spine
      LeftUpLeg_dum LeftUpLeg
      RightUpLeg_dum RightUpLeg
      Spine Spine_dum1 Spine_dum2 Spine_dum3
      Spine_dum1 Head
      Spine_dum2 LeftShoulder
      Spine_dum3 RightShoulder
      LeftShoulder LeftArm
      LeftArm LeftForeArm
      LeftForeArm LeftHand
      LeftHand LeftHand_dum1 LeftHand_dum2
      LeftHand_dum1 LeftHandThumb1
      RightShoulder RightArm
      RightArm RightForeArm
      RightForeArm RightHand
      RightHand RightHand_dum1 RightHand_dum2
      RightHand_dum1 RightHandThumb1
      LeftUpLeg LeftLeg
      LeftLeg LeftFoot
      LeftFoot LeftToeBase
      RightUpLeg RightLeg
      RightLeg RightFoot
      RightFoot RightToeBase
   end

# File created by Blade
# Date/Time:  Wed Apr 08 17:39:35 2015
# Frame Rate: 120.000 fps
#------------------------------------------------------
:FULLY-SPECIFIED
:DEGREES
262
root 6.757904 36.183099 3.138452 15.306169 -45.434964 -356.590136
Spine -19.592103 -6.253639 -5.515861
Head 38.984389 24.286003 14.503395
LeftShoulder -11.385361 23.325040 12.231581
LeftArm 16.090059 12.325881 -79.340388
LeftForeArm 21.886422 -0.000000 23.390634
LeftHand -12.248847 -0.000000 -11.285685
LeftHandThumb1 -26.253704 0.000000 33.147579
RightShoulder -39.767801 -51.686719 16.257250
RightArm 47.765220 -14.151237 52.463506
RightForeArm -5.647026 0.000000 18.171821
RightHand 1.755763 0.000000 5.440016
RightHandThumb1 -24.326973 -0.000000 -32.862282
LeftUpLeg -19.364626 -3.036226 -6.985251
LeftLeg 13.674155 -0.000000 -0.000000
LeftFoot -11.178220 -1.282617 -2.845668
LeftToeBase 8.097104 -0.000000 -0.000000
RightUpLeg -75.685162 1.902848 13.981409
RightLeg 62.356799 -0.000000 -0.000000
RightFoot -0.413982 -26.613091 5.418754
RightToeBase -11.741557 -0.000000 0.000000
263
root 6.754569 36.157831 3.152467 14.749705 -45.605122 -356.476569
Spine -19.039680 -6.063261 -5.653353
Head 38.905836 24.315179 14.462282
LeftShoulder -11.387706 23.277827 12.208528
LeftArm 16.107172 12.265935 -79.371248
LeftForeArm 22.002029 0.000000 23.294909
LeftHand -12.224758 0.000000 -11.408476
LeftHandThumb1 -26.253704 0.000000 33.147579
RightShoulder -39.600007 -51.598925 16.146987
RightArm 47.925859 -14.239814 52.163506
RightForeArm -6.072681 -0.000000 18.584235
RightHand 1.607588 -0.000000 5.823801
RightHandThumb1 -24.326973 -0.000000 -32.862282
LeftUpLeg -18.828423 -3.181253 -7.104230
LeftLeg 13.615853 -0.000000 -0.000000
LeftFoot -11.311125 -0.824886 -2.574526
LeftToeBase 7.876931 -0.000000 -0.000000
RightUpLeg -75.137427 2.244032 12.904115
RightLeg 61.872061 -0.000000 -0.000000
RightFoot 1.788348 -26.014710 5.816429
RightToeBase -10.193255 -0.000000 0.000000
264
root 6.752145 36.136876 3.160693 14.330791 -45.727411 -356.383651
Spine -18.639239 -5.933142 -5.755895
Head 38.857765 24.331255 14.448002
LeftShoulder -11.385753 23.239689 12.202431
LeftArm 16.093698 12.237039 -79.401181
LeftForeArm 22.054855 -0.000000 23.204565
LeftHand -12.190910 -0.000000 -11.412209
LeftHandThumb1 -26.253704 0.000000 33.147579
RightShoulder -39.493008 -51.549167 16.129533
RightArm 48.079216 -14.283737 51.843992
RightForeArm -6.449475 -0.000000 19.036151
RightHand 1.535438 -0.000000 5.707853
RightHandThumb1 -24.326973 -0.000000 -32.862282
LeftUpLeg -18.439332 -3.329532 -7.187232
LeftLeg 13.591308 -0.000000 -0.000000
LeftFoot -11.426515 -0.459138 -2.398450
LeftToeBase 7.463283 -0.000000 -0.000000
RightUpLeg -74.707749 2.576060 11.890285
RightLeg 61.412004 -0.000000 -0.000000
RightFoot 4.090228 -25.305261 6.604463
RightToeBase -8.604869 -0.000000 0.000000
265
root 6.751806 36.118886 3.169890 13.984707 -45.877239 -356.277418
Spine -18.351210 -5.765192 -5.860907
Head 38.835875 24.318858 14.437769
LeftShoulder -11.375972 23.237940 12.184938
LeftArm 16.111606 12.217361 -79.407758
LeftForeArm 21.965828 -0.000000 23.092101
LeftHand -12.176580 -0.000000 -11.469955
LeftHandThumb1 -26.253704 0.000000 33.147579
RightShoulder -39.434934 -51.496446 16.133956
RightArm 48.240784 -14.297413 51.571123
RightForeArm -6.887690 -0.000000 19.407823
RightHand 1.341749 -0.000000 6.679828
RightHandThumb1 -24.326973 -0.000000 -32.862282
LeftUpLeg -18.132841 -3.397187 -7.295092
LeftLeg 13.563105 -0.000000 -0.000000
LeftFoot -11.536622 -0.180415 -2.230774
LeftToeBase 7.384706 -0.000000 -0.000000
RightUpLeg -74.358818 2.895910 10.954173
RightLeg 61.006286 -0.000000 -0.000000
RightFoot 6.484035 -24.675450 7.572997
RightToeBase -6.510373 -0.000000 0.000000
266
root 6.753262 36.105408 3.173351 13.772673 -45.985350 -356.184392
Spine -18.214259 -5.666728 -5.935462
Head 38.868791 24.314775 14.478794
LeftShoulder -11.368577 23.267752 12.167876
LeftArm 16.104427 12.180133 -79.419470
LeftForeArm 21.851778 -0.000000 23.014874
LeftHand -12.205722 -0.000000 -11.491922
LeftHandThumb1 -26.253704 0.000000 33.147579
RightShoulder -39.437381 -51.480112 16.220433
RightArm 48.455150 -14.295725 51.227543
RightForeArm -7.217507 -0.000000 19.732262
RightHand 1.260206 -0.000000 7.033117
RightHandThumb1 -24.326973 -0.000000 -32.862282
LeftUpLeg -17.965470 -3.428871 -7.383434
LeftLeg 13.538361 -0.000000 -0.000000
LeftFoot -11.579458 -0.009412 -2.100884
LeftToeBase 7.241340 -0.000000 -0.000000
RightUpLeg -74.125528 3.162182 10.136428
RightLeg 60.617960 -0.000000 -0.000000
RightFoot 9.016739 -24.237399 8.697361
RightToeBase -3.875306 -0.000000 0.000000
267
root 6.754381 36.091815 3.179542 13.505096 -46.093848 -356.059705
Spine -18.049362 -5.582307 -6.032302
Head 38.925780 24.302817 14.536716
LeftShoulder -11.360967 23.311013 12.155625
LeftArm 16.105682 12.164834 -79.421146
LeftForeArm 21.765898 0.000000 22.942640
LeftHand -12.196932 -0.000000 -11.494204
LeftHandThumb1 -26.253704 0.000000 33.147579
RightShoulder -39.389239 -51.445658 16.264472
RightArm 48.637820 -14.316987 50.884582
RightForeArm -7.631791 0.000000 20.054609
RightHand 1.027140 -0.000000 7.416618
RightHandThumb1 -24.326973 -0.000000 -32.862282
LeftUpLeg -17.757485 -3.422301 -7.497027
LeftLeg 13.507915 -0.000000 -0.000000
LeftFoot -11.640570 0.107734 -2.024372
LeftToeBase 7.185196 -0.000000 -0.000000
RightUpLeg -73.870522 3.373907 9.389286
RightLeg 60.314978 -0.000000 -0.000000
RightFoot 11.525330 -24.018544 10.113092
RightToeBase -1.252454 -0.000000 0.000000
